Coordinates
version=1
nRows=4
nColumns=63
inDegrees=yes

Units are S.I. units (second, meters, Newtons, ...)
If the header above contains a line with 'inDegrees', this indicates whether rotational values are in degrees (yes) or radians (no).

endheader
time	pelvis_tilt	pelvis_list	pelvis_rotation	pelvis_tx	pelvis_ty	pelvis_tz	hip_flexion_r	hip_adduction_r	hip_rotation_r	knee_angle_r	knee_angle_r_beta	ankle_angle_r	subtalar_angle_r	mtp_angle_r	hip_flexion_l	hip_adduction_l	hip_rotation_l	knee_angle_l	knee_angle_l_beta	ankle_angle_l	subtalar_angle_l	mtp_angle_l	L5_S1_Flex_Ext	L5_S1_Lat_Bending	L5_S1_axial_rotation	L4_L5_Flex_Ext	L4_L5_Lat_Bending	L4_L5_axial_rotation	L3_L4_Flex_Ext	L3_L4_Lat_Bending	L3_L4_axial_rotation	L2_L3_Flex_Ext	L2_L3_Lat_Bending	L2_L3_axial_rotation	L1_L2_Flex_Ext	L1_L2_Lat_Bending	L1_L2_axial_rotation	L1_T12_Flex_Ext	L1_T12_Lat_Bending	L1_T12_axial_rotation	Abs_r3	Abs_r2	Abs_r1	Abs_t1	Abs_t2	neck_flexion	neck_bending	neck_rotation	arm_flex_r	arm_add_r	arm_rot_r	elbow_flex_r	pro_sup_r	wrist_flex_r	wrist_dev_r	arm_flex_l	arm_add_l	arm_rot_l	elbow_flex_l	pro_sup_l	wrist_flex_l	wrist_dev_l
      8.16666667	     -1.85529463	      0.96529351	    -29.98788279	     -1.72167622	      0.84159963	      0.30378554	     -7.94671951	     -6.88578185	     15.08919236	     24.31040413	      0.42429659	     14.34764243	     -3.82624098	      0.00000000	     22.21952456	    -11.80375191	    -20.60294343	     21.22265365	      0.37040518	      9.30285826	     -9.38093233	      0.00000000	     -0.03113008	     -0.38628712	      5.86449939	     -0.05781167	     -0.51376186	      6.23103060	     -0.05114361	     -0.93921849	      6.23103060	     -0.03557857	     -0.93921849	      5.13143696	     -0.02890739	     -0.78771669	      4.76490575	     -0.01778773	     -0.59835874	      4.39837454	     -0.22235904	     -4.36975712	     32.61658623	      0.00000000	      0.00000000	      0.00000000	      0.00000000	      0.00000000	     -7.50225077	     -3.30130336	     -3.02101698	     25.88075365	     35.43704637	      0.00000000	      5.00000014	    -12.83393870	      6.20972462	    -37.62363391	     34.04372365	     35.04053792	      0.00000000	      5.00000014
      8.20000000	     -1.84732695	      0.98118774	    -29.95602348	     -1.72170246	      0.84158743	      0.30379391	     -7.92829148	     -6.91324131	     14.93736802	     24.34908373	      0.42497168	     14.39991538	     -3.69365117	      0.00000000	     22.23077555	    -11.81557713	    -20.74503218	     21.24846049	      0.37085560	      9.35199804	     -9.12669707	      0.00000000	     -0.03177406	     -0.38859364	      5.85804960	     -0.05900761	     -0.51682954	      6.22417770	     -0.05220161	     -0.94482658	      6.22417770	     -0.03631458	     -0.94482658	      5.12579340	     -0.02950539	     -0.79242015	      4.75966530	     -0.01815570	     -0.60193155	      4.39353720	     -0.22695895	     -4.39584897	     32.58071444	      0.00000000	      0.00000000	      0.00000000	      0.00000000	      0.00000000	     -7.44721773	     -3.27131380	     -3.08266091	     25.73577584	     35.61851645	      0.00000000	      5.00000014	    -12.81512313	      6.21170885	    -37.70040997	     34.02029340	     35.22699696	      0.00000000	      5.00000014
      8.23333333	     -1.84092301	      1.01792822	    -29.86385827	     -1.72164919	      0.84156972	      0.30364253	     -7.90608661	     -7.02215047	     14.47645566	     24.36913248	      0.42532160	     14.57716772	     -3.10143668	      0.00000000	     22.28738716	    -11.70865782	    -20.48436975	     21.25639463	      0.37099407	      9.25580496	     -9.43054312	      0.00000000	     -0.03161129	     -0.39241664	      5.83776781	     -0.05870532	     -0.52191413	      6.20262829	     -0.05193418	     -0.95412183	      6.20262829	     -0.03612854	     -0.95412183	      5.10804683	     -0.02935424	     -0.80021602	      4.74318634	     -0.01806269	     -0.60785338	      4.37832585	     -0.22579626	     -4.43909555	     32.46791320	      0.00000000	      0.00000000	      0.00000000	      0.00000000	      0.00000000	     -7.38447658	     -3.23566261	     -3.24660415	     25.55251991	     35.89798710	      0.00000000	      5.00000014	    -12.81341940	      6.20800529	    -37.76751865	     34.00690632	     35.52689343	      0.00000000	      5.00000014
      8.26666667	     -1.85621821	      0.97730587	    -29.97474383	     -1.72169065	      0.84159824	      0.30377739	     -7.93790235	     -6.90816208	     14.98540699	     24.30715399	      0.42423987	     14.38191649	     -3.70420375	      0.00000000	     22.21592642	    -11.77442451	    -20.55187737	     21.18041148	      0.36966792	      9.25372377	     -9.44726666	      0.00000000	     -0.03114404	     -0.38749381	      5.86323317	     -0.05783760	     -0.51536677	      6.22968524	     -0.05116655	     -0.94215246	      6.22968524	     -0.03559453	     -0.94215246	      5.13032902	     -0.02892036	     -0.79017738	      4.76387695	     -0.01779571	     -0.60022792	      4.39742487	     -0.22245877	     -4.38340751	     32.60954390	      0.00000000	      0.00000000	      0.00000000	      0.00000000	      0.00000000	     -7.50756129	     -3.27548651	     -3.16445955	     25.87274264	     35.72371271	      0.00000000	      5.00000014	    -12.82449363	      6.21622643	    -37.69239356	     34.03838727	     35.31587644	      0.00000000	      5.00000014
